<?xml version="1.0" encoding="UTF-8"?>
<svg width="20px" height="20px" viewBox="0 0 20 20" version="1.1" xmlns="http://www.w3.org/2000/svg" xmlns:xlink="http://www.w3.org/1999/xlink">
    <!-- Generator: Sketch 47.1 (45422) - http://www.bohemiancoding.com/sketch -->
    <title>audit_icon_default</title>
    <desc>Created with Sketch.</desc>
    <defs></defs>
    <g id="Page-1" stroke="none" stroke-width="1" fill="none" fill-rule="evenodd">
        <g id="audit_icon_default" transform="translate(1.000000, 1.211430)">
            <path d="M4.49755815,2.01607936 L4.49755815,0.749593024 C4.49755815,0.335604228 4.83316237,0 5.24715117,0 L17.2857334,0 C17.6997222,0 18.0353264,0.335604228 18.0353264,0.749593024 C18.0353264,6.48193289 18.0353264,9.14946165 18.0353264,12.0156316 M13.3487356,17.1943633 C11.3083926,17.1943633 9.327837,17.1943633 5.24715117,17.1943633 C4.83316237,17.1943633 4.49755815,16.858759 4.49755815,16.4447702 L4.49755815,13.8583682" id="Rectangle-20" stroke="#737373" stroke-width="1.5" stroke-linecap="round" stroke-linejoin="round"></path>
            <path d="M18.7195279,14.2505255 L16.3098537,14.2505255 L16.3098537,14.2505255 C15.757569,14.2505255 15.3098537,14.6982408 15.3098537,15.2505255 L15.3098537,15.2505255 L15.3098537,17.6601997 L18.7195279,14.2505255 Z" id="Combined-Shape" fill="#737373"></path>
            <g id="Group-32" transform="translate(0.391215, 3.675763)" stroke="#737373" stroke-width="1.5">
                <circle id="Oval-3" cx="6.20014559" cy="3.61662254" r="3.41452012"></circle>
                <path d="M0.143020763,10.568549 L4.03541744,6.33473629" id="Path-19" stroke-linecap="round" stroke-linejoin="round"></path>
            </g>
            <g id="Group-28" transform="translate(6.768884, 3.350030)" stroke="#737373" stroke-width="1.5" stroke-linecap="round" stroke-linejoin="round">
                <path d="M5.23935602,1.80581977 L8.25510151,1.80581977" id="Path-20"></path>
                <path d="M6.19683165,5.77526454 L8.25510151,5.77526454" id="Path-20-Copy"></path>
                <path d="M0.706403701,9.55731106 L8.25510151,9.55731106" id="Path-20-Copy-3"></path>
            </g>
        </g>
    </g>
</svg>