<?xml version="1.0" standalone="no"?><!DOCTYPE svg PUBLIC "-//W3C//DTD SVG 1.1//EN" "http://www.w3.org/Graphics/SVG/1.1/DTD/svg11.dtd"><svg t="1562657475347" class="icon" viewBox="0 0 1024 1024" version="1.1" xmlns="http://www.w3.org/2000/svg" p-id="5384" xmlns:xlink="http://www.w3.org/1999/xlink" width="120" height="120"><defs><style type="text/css">@font-face { font-family: rbicon; src: url("chrome-extension://dipiagiiohfljcicegpgffpbnjmgjcnf/fonts/rbicon.woff2") format("woff2"); font-weight: normal; font-style: normal; }
</style></defs><path d="M864 128c-84.88 0-127.6 102.272-68.864 162.8l-137.36 285.28a94.048 94.048 0 0 0-40.72 8.208l-141.184-124.56C494.56 397.84 448.08 336 384 336c-76.176 0-121.728 84.576-80.56 148.096l-130.4 204.88c-58.72-8-109.056 37.68-109.056 95.008a96 96 0 0 0 96 96c76.208 0 121.712-84.592 80.576-148.08l130.4-204.896a94.224 94.224 0 0 0 51.984-7.312l141.168 124.56C545.472 706.016 591.792 768 656 768c81.632 0 125.296-95.344 73.888-157.28l140.144-291.04A95.92 95.92 0 0 0 864 128z" fill="#7e7e7e" p-id="5385"></path></svg>