<?xml version="1.0" encoding="UTF-8"?>
<svg width="20px" height="20px" viewBox="0 0 20 20" version="1.1" xmlns="http://www.w3.org/2000/svg" xmlns:xlink="http://www.w3.org/1999/xlink">
    <!-- Generator: Sketch 47.1 (45422) - http://www.bohemiancoding.com/sketch -->
    <title>demandlist_icon_default</title>
    <desc>Created with Sketch.</desc>
    <defs></defs>
    <g id="Page-1" stroke="none" stroke-width="1" fill="none" fill-rule="evenodd">
        <g id="demandlist_icon_default" transform="translate(1.000000, 0.009525)">
            <path d="M9.60152549,19.1395103 L1.89473684,19.1395103 L1.89473684,19.1395103 C0.848302579,19.1395103 0,18.2440798 0,17.1395103 L0,2.86048975 L0,2.86048975 C0,1.75592025 0.848302579,0.860489749 1.89473684,0.860489749 L1.89473684,0.860489749 L12.8518999,0.860489749 L12.8518999,0.860489749 C13.8983342,0.860489749 14.7466368,1.75592025 14.7466368,2.86048975 L14.7466368,12.9331299" id="Rectangle-9" stroke="#737373" stroke-width="1.5" stroke-linecap="round" stroke-linejoin="round"></path>
            <ellipse id="Oval-4" fill="#737373" cx="3.69469274" cy="6.75" rx="1" ry="1"></ellipse>
            <ellipse id="Oval-4-Copy" fill="#737373" cx="3.69469274" cy="10.5763109" rx="1" ry="1"></ellipse>
            <path d="M6.63157895,6.75 L11.3684211,6.75" id="Path-21" stroke="#737373" stroke-width="1.5" stroke-linecap="round" stroke-linejoin="round"></path>
            <path d="M6.63157895,10.75 L11.3684211,10.75" id="Path-21-Copy" stroke="#737373" stroke-width="1.5" stroke-linecap="round" stroke-linejoin="round"></path>
            <polyline id="Path-22" stroke="#737373" stroke-width="1.5" stroke-linecap="round" stroke-linejoin="round" points="11.3684211 16.7392524 13.5283967 18.738566 17.7266066 13"></polyline>
        </g>
    </g>
</svg>