<?xml version="1.0" encoding="UTF-8"?>
<svg width="19px" height="18px" viewBox="0 0 19 18" version="1.1" xmlns="http://www.w3.org/2000/svg" xmlns:xlink="http://www.w3.org/1999/xlink">
    <!-- Generator: Sketch 47.1 (45422) - http://www.bohemiancoding.com/sketch -->
    <title>demandtraffic_icon_default</title>
    <desc>Created with Sketch.</desc>
    <defs></defs>
    <g id="Page-1" stroke="none" stroke-width="1" fill="none" fill-rule="evenodd" stroke-linecap="round" stroke-linejoin="round">
        <g id="demandtraffic_icon_default" transform="translate(1.500000, 0.807620)" stroke="#737373" stroke-width="1.5">
            <path d="M3.29897018,9.3455334 L5.59794036,9.3455334 L5.59794036,9.3455334 C6.15022511,9.3455334 6.59794036,9.79324865 6.59794036,10.3455334 L6.59794036,14.9434738 L6.59794036,14.9434738 C6.59794036,15.4957585 6.15022511,15.9434738 5.59794036,15.9434738 L1,15.9434738 L1,15.9434738 C0.44771525,15.9434738 4.47140469e-16,15.4957585 -1.11022302e-16,14.9434738 L0,12.6445036 L0,12.6445036 C-2.23127086e-16,10.8225327 1.47699926,9.3455334 3.29897018,9.3455334 Z" id="Rectangle-23"></path>
            <path d="M12.6939744,9.3455334 L14.9929445,9.3455334 L14.9929445,9.3455334 C15.5452293,9.3455334 15.9929445,9.79324865 15.9929445,10.3455334 L15.9929445,14.9434738 L15.9929445,14.9434738 C15.9929445,15.4957585 15.5452293,15.9434738 14.9929445,15.9434738 L10.3950042,15.9434738 L10.3950042,15.9434738 C9.84271943,15.9434738 9.39500418,15.4957585 9.39500418,14.9434738 L9.39500418,12.6445036 L9.39500418,12.6445036 C9.39500418,10.8225327 10.8720034,9.3455334 12.6939744,9.3455334 Z" id="Rectangle-23-Copy-2" transform="translate(12.693974, 12.644504) scale(-1, 1) translate(-12.693974, -12.644504) "></path>
            <path d="M3.29897018,0.137678636 L5.59794036,0.137678636 L5.59794036,0.137678636 C6.15022511,0.137678636 6.59794036,0.585393886 6.59794036,1.13767864 L6.59794036,5.735619 L6.59794036,5.735619 C6.59794036,6.28790375 6.15022511,6.735619 5.59794036,6.735619 L1,6.735619 L1,6.735619 C0.44771525,6.735619 4.47140469e-16,6.28790375 -1.11022302e-16,5.735619 L0,3.43664882 L0,3.43664882 C-2.23127086e-16,1.6146779 1.47699926,0.137678636 3.29897018,0.137678636 Z" id="Rectangle-23-Copy" transform="translate(3.298970, 3.436649) scale(1, -1) translate(-3.298970, -3.436649) "></path>
            <path d="M12.6939744,0.137678636 L14.9929445,0.137678636 L14.9929445,0.137678636 C15.5452293,0.137678636 15.9929445,0.585393886 15.9929445,1.13767864 L15.9929445,5.735619 L15.9929445,5.735619 C15.9929445,6.28790375 15.5452293,6.735619 14.9929445,6.735619 L10.3950042,6.735619 L10.3950042,6.735619 C9.84271943,6.735619 9.39500418,6.28790375 9.39500418,5.735619 L9.39500418,3.43664882 L9.39500418,3.43664882 C9.39500418,1.6146779 10.8720034,0.137678636 12.6939744,0.137678636 Z" id="Rectangle-23-Copy-3" transform="translate(12.693974, 3.436649) scale(-1, -1) translate(-12.693974, -3.436649) "></path>
        </g>
    </g>
</svg>