<?xml version="1.0" standalone="no"?><!DOCTYPE svg PUBLIC "-//W3C//DTD SVG 1.1//EN" "http://www.w3.org/Graphics/SVG/1.1/DTD/svg11.dtd"><svg t="1567420689407" class="icon" viewBox="0 0 1024 1024" version="1.1" xmlns="http://www.w3.org/2000/svg" p-id="1975" xmlns:xlink="http://www.w3.org/1999/xlink" width="256" height="256"><defs><style type="text/css">@font-face { font-family: rbicon; src: url("chrome-extension://dipiagiiohfljcicegpgffpbnjmgjcnf/fonts/rbicon.woff2") format("woff2"); font-weight: normal; font-style: normal; }
</style></defs><path d="M1021.451742 971.835659c0 12.791256-5.096516 26.08217-14.78989 35.775544-17.887772 17.887772-45.968576 20.386064-66.35464 5.096516L652.603884 800.252952 486.117693 966.739143c-16.388797 16.388797-41.871377 19.386747-61.757783 7.69474-12.791256-8.194398-112.423148-76.647604-75.048697-228.843564 0.499658-2.598224 0.499658-5.096516 0.999317-8.194398 0.499658-6.095833 0.999317-13.290914 2.598224-20.985655 5.096516-32.178003-20.386064-89.43886-62.857032-138.905045-40.372402-47.467551-87.340295-78.146579-120.017956-78.146579-7.69474 0-15.789207 0-23.483947 0.499658-30.679028 0.999317-77.646921 3.097882-112.423148-31.678345-41.371719-41.371719-44.969259-107.2267-7.69474-152.695618 0.499658-0.999317 1.498975-1.498975 2.598224-2.598224 23.983605-24.483263 275.311799-275.811457 277.910023-278.409681C328.325559 13.091051 357.40568 0.799453 388.084708 0.799453c30.679028 0 59.259491 11.791939 80.744803 33.676979 34.776227 34.776227 33.17732 82.243779 31.678345 113.422465 0 7.195081-0.499658 15.289548-0.499658 22.984288 0 30.679028 21.485313 67.453889 60.758465 103.729092C615.928955 325.177711 686.880453 356.356397 719.158388 353.758173c10.193032-0.999317 28.080804-3.097882 30.679028-3.597541 149.198009-36.774861 217.051625 62.857031 224.746365 74.549039 12.291598 20.485996 9.193715 46.468235-7.195082 62.857031l-177.878403 177.778472c-10.193032 10.193032-26.08217 10.193032-36.275203 0-10.193032-10.193032-10.193032-26.08217 0-36.275202l176.779155-178.27813c-5.096516-7.69474-54.662633-79.645555-171.083049-51.065093-2.598224 0.499658-23.483947 3.097882-35.775544 4.596858-51.065092 4.097199-135.907095-35.775544-197.664877-92.436811-35.275886-32.178003-77.147263-83.243096-77.147263-141.003611 0-7.69474 0-16.388797 0.499659-24.483263 1.498975-32.178003 0.999317-57.760515-16.888456-75.548356-11.791939-11.791939-27.581146-18.38743-44.969259-18.38743-16.888455 0-32.677662 6.595491-44.969259 18.887089C339.417976 72.8502 71.800917 340.56719 64.106177 348.761589 44.319703 372.645262 46.318337 409.420123 69.302625 432.404411c17.887772 17.887772 43.370352 18.38743 75.048697 16.888455 8.694057 0 17.388114-0.499658 24.982922-0.499658 47.96721 0 107.826291 35.775544 158.891383 96.034351 41.871377 49.566117 83.742754 122.61618 74.549039 180.276764-0.999317 6.095833-1.498975 12.291598-1.998634 17.388114-0.499658 3.097882-0.499658 6.595491-0.999317 9.193715 0 2.598224-0.499658 4.596858-1.498975 7.195082-29.080121 117.519664 43.470284 166.98585 51.56475 172.681955l181.875671-182.375329c8.694057-8.694057 22.984288-10.193032 33.177321-2.598224L970.38665 972.335318 796.705377 733.79838c-8.194398-11.192349-5.596174-27.581146 5.596175-35.775544 11.192349-8.194398 27.581146-5.596174 35.775544 5.596174l173.681272 238.03728c6.595491 9.193715 9.693374 19.986337 9.693374 30.179369z m0 0" p-id="1976" fill="#7E7E7E"></path></svg>