<?xml version="1.0" standalone="no"?><!DOCTYPE svg PUBLIC "-//W3C//DTD SVG 1.1//EN" "http://www.w3.org/Graphics/SVG/1.1/DTD/svg11.dtd"><svg t="1562657494032" class="icon" viewBox="0 0 1024 1024" version="1.1" xmlns="http://www.w3.org/2000/svg" p-id="5517" xmlns:xlink="http://www.w3.org/1999/xlink" width="120" height="120"><defs><style type="text/css">@font-face { font-family: rbicon; src: url("chrome-extension://dipiagiiohfljcicegpgffpbnjmgjcnf/fonts/rbicon.woff2") format("woff2"); font-weight: normal; font-style: normal; }
</style></defs><path d="M850.944 688.992l-130.4-204.896A95.44 95.44 0 0 0 736 432a96 96 0 0 0-96-96c-64.128 0-110.56 61.904-91.904 123.728l-141.184 124.576a94.016 94.016 0 0 0-40.72-8.208l-137.36-285.28C287.68 230.16 244.736 128 160 128a95.92 95.92 0 1 0-6.032 191.68l140.144 291.04c-51.312 61.808-7.92 157.28 73.888 157.28 64.224 0 110.496-62.032 91.888-123.744l141.184-124.56a94.208 94.208 0 0 0 51.984 7.312l130.4 204.896c-41.088 63.392 4.256 148.08 80.56 148.08a96 96 0 0 0 96-96c0-57.312-50.32-103.008-109.056-95.008z" fill="#7e7e7e" p-id="5518"></path></svg>